<mxfile host="app.diagrams.net" agent="Mozilla/5.0 (Windows NT 10.0; Win64; x64) AppleWebKit/537.36 (KHTML, like Gecko) Chrome/135.0.0.0 Safari/537.36" version="26.2.14">
  <diagram name="Page-1" id="HJgIRZcRCk3mDg_wpJrd">
    <mxGraphModel dx="1426" dy="777" grid="1" gridSize="10" guides="1" tooltips="1" connect="1" arrows="1" fold="1" page="1" pageScale="1" pageWidth="850" pageHeight="1100" math="0" shadow="0">
      <root>
        <mxCell id="0" />
        <mxCell id="1" parent="0" />
        <mxCell id="S5Txtm_veZ8N1voSTqvE-1" value="&#xa;Customer&#xa;&#xa;" style="shape=umlActor;verticalLabelPosition=bottom;verticalAlign=top;html=1;outlineConnect=0;" vertex="1" parent="1">
          <mxGeometry x="150" y="100" width="30" height="60" as="geometry" />
        </mxCell>
        <mxCell id="S5Txtm_veZ8N1voSTqvE-3" value="Office Staff" style="shape=umlActor;verticalLabelPosition=bottom;verticalAlign=top;html=1;outlineConnect=0;" vertex="1" parent="1">
          <mxGeometry x="160" y="230" width="30" height="60" as="geometry" />
        </mxCell>
        <mxCell id="S5Txtm_veZ8N1voSTqvE-4" value="Production Manager" style="shape=umlActor;verticalLabelPosition=bottom;verticalAlign=top;html=1;outlineConnect=0;" vertex="1" parent="1">
          <mxGeometry x="160" y="380" width="30" height="60" as="geometry" />
        </mxCell>
        <mxCell id="S5Txtm_veZ8N1voSTqvE-5" value="&#xa;Add Customer&#xa;&#xa;" style="ellipse;whiteSpace=wrap;html=1;" vertex="1" parent="1">
          <mxGeometry x="330" y="100" width="120" height="80" as="geometry" />
        </mxCell>
        <mxCell id="S5Txtm_veZ8N1voSTqvE-6" value="&#xa;Record Order&#xa;&#xa;" style="ellipse;whiteSpace=wrap;html=1;" vertex="1" parent="1">
          <mxGeometry x="330" y="200" width="120" height="80" as="geometry" />
        </mxCell>
        <mxCell id="S5Txtm_veZ8N1voSTqvE-7" value="&#xa;Generate Invoice&#xa;&#xa;" style="ellipse;whiteSpace=wrap;html=1;" vertex="1" parent="1">
          <mxGeometry x="540" y="320" width="120" height="80" as="geometry" />
        </mxCell>
        <mxCell id="S5Txtm_veZ8N1voSTqvE-8" value="&#xa;Revise Order&#xa;&#xa;" style="ellipse;whiteSpace=wrap;html=1;" vertex="1" parent="1">
          <mxGeometry x="330" y="310" width="120" height="80" as="geometry" />
        </mxCell>
        <mxCell id="S5Txtm_veZ8N1voSTqvE-10" value="&#xa;View Orders&#xa;&#xa;" style="ellipse;whiteSpace=wrap;html=1;" vertex="1" parent="1">
          <mxGeometry x="330" y="510" width="120" height="80" as="geometry" />
        </mxCell>
        <mxCell id="S5Txtm_veZ8N1voSTqvE-11" value="" style="endArrow=classic;html=1;rounded=0;exitX=1;exitY=0.3333333333333333;exitDx=0;exitDy=0;exitPerimeter=0;entryX=0;entryY=0.375;entryDx=0;entryDy=0;entryPerimeter=0;" edge="1" parent="1" source="S5Txtm_veZ8N1voSTqvE-4" target="S5Txtm_veZ8N1voSTqvE-10">
          <mxGeometry width="50" height="50" relative="1" as="geometry">
            <mxPoint x="320" y="390" as="sourcePoint" />
            <mxPoint x="370" y="340" as="targetPoint" />
          </mxGeometry>
        </mxCell>
        <mxCell id="S5Txtm_veZ8N1voSTqvE-12" value="" style="endArrow=classic;html=1;rounded=0;exitX=1;exitY=0.3333333333333333;exitDx=0;exitDy=0;exitPerimeter=0;entryX=0;entryY=0.5;entryDx=0;entryDy=0;" edge="1" parent="1" source="S5Txtm_veZ8N1voSTqvE-1" target="S5Txtm_veZ8N1voSTqvE-5">
          <mxGeometry width="50" height="50" relative="1" as="geometry">
            <mxPoint x="200" y="410" as="sourcePoint" />
            <mxPoint x="330" y="600" as="targetPoint" />
          </mxGeometry>
        </mxCell>
        <mxCell id="S5Txtm_veZ8N1voSTqvE-13" value="" style="endArrow=classic;html=1;rounded=0;exitX=1;exitY=1;exitDx=0;exitDy=0;exitPerimeter=0;entryX=0;entryY=1;entryDx=0;entryDy=0;" edge="1" parent="1" source="S5Txtm_veZ8N1voSTqvE-3" target="S5Txtm_veZ8N1voSTqvE-5">
          <mxGeometry width="50" height="50" relative="1" as="geometry">
            <mxPoint x="210" y="420" as="sourcePoint" />
            <mxPoint x="340" y="610" as="targetPoint" />
          </mxGeometry>
        </mxCell>
        <mxCell id="S5Txtm_veZ8N1voSTqvE-14" value="" style="endArrow=classic;html=1;rounded=0;exitX=1;exitY=1;exitDx=0;exitDy=0;exitPerimeter=0;" edge="1" parent="1" source="S5Txtm_veZ8N1voSTqvE-1" target="S5Txtm_veZ8N1voSTqvE-6">
          <mxGeometry width="50" height="50" relative="1" as="geometry">
            <mxPoint x="220" y="430" as="sourcePoint" />
            <mxPoint x="350" y="620" as="targetPoint" />
          </mxGeometry>
        </mxCell>
        <mxCell id="S5Txtm_veZ8N1voSTqvE-15" value="" style="endArrow=classic;html=1;rounded=0;entryX=0.075;entryY=0.713;entryDx=0;entryDy=0;entryPerimeter=0;exitX=1;exitY=1;exitDx=0;exitDy=0;exitPerimeter=0;" edge="1" parent="1" source="S5Txtm_veZ8N1voSTqvE-3" target="S5Txtm_veZ8N1voSTqvE-6">
          <mxGeometry width="50" height="50" relative="1" as="geometry">
            <mxPoint x="190" y="290" as="sourcePoint" />
            <mxPoint x="360" y="630" as="targetPoint" />
          </mxGeometry>
        </mxCell>
        <mxCell id="S5Txtm_veZ8N1voSTqvE-16" value="" style="endArrow=classic;html=1;rounded=0;exitX=1;exitY=1;exitDx=0;exitDy=0;exitPerimeter=0;" edge="1" parent="1" source="S5Txtm_veZ8N1voSTqvE-3" target="S5Txtm_veZ8N1voSTqvE-8">
          <mxGeometry width="50" height="50" relative="1" as="geometry">
            <mxPoint x="190" y="290" as="sourcePoint" />
            <mxPoint x="370" y="640" as="targetPoint" />
          </mxGeometry>
        </mxCell>
        <mxCell id="S5Txtm_veZ8N1voSTqvE-17" value="&amp;lt;&amp;lt;include&amp;gt;&amp;gt;" style="endArrow=open;endSize=12;dashed=1;html=1;rounded=0;exitX=1;exitY=0.5;exitDx=0;exitDy=0;" edge="1" parent="1" source="S5Txtm_veZ8N1voSTqvE-8" target="S5Txtm_veZ8N1voSTqvE-7">
          <mxGeometry width="160" relative="1" as="geometry">
            <mxPoint x="270" y="370" as="sourcePoint" />
            <mxPoint x="430" y="370" as="targetPoint" />
          </mxGeometry>
        </mxCell>
        <mxCell id="S5Txtm_veZ8N1voSTqvE-19" value="" style="rounded=0;whiteSpace=wrap;html=1;" vertex="1" parent="1">
          <mxGeometry x="110" y="650" width="560" height="120" as="geometry" />
        </mxCell>
        <mxCell id="S5Txtm_veZ8N1voSTqvE-20" value="Usecase" style="ellipse;whiteSpace=wrap;html=1;" vertex="1" parent="1">
          <mxGeometry x="140" y="670" width="120" height="80" as="geometry" />
        </mxCell>
        <mxCell id="S5Txtm_veZ8N1voSTqvE-22" value="Interation" style="endArrow=classic;html=1;rounded=0;entryX=0.643;entryY=0.667;entryDx=0;entryDy=0;entryPerimeter=0;" edge="1" parent="1">
          <mxGeometry x="0.0098" y="5" width="50" height="50" relative="1" as="geometry">
            <mxPoint x="299.96" y="714.98" as="sourcePoint" />
            <mxPoint x="400.0399999999999" y="705.02" as="targetPoint" />
            <mxPoint as="offset" />
          </mxGeometry>
        </mxCell>
        <mxCell id="S5Txtm_veZ8N1voSTqvE-23" value="Email Invoice&lt;div&gt;&lt;br/&gt;&lt;/div&gt;" style="ellipse;whiteSpace=wrap;html=1;" vertex="1" parent="1">
          <mxGeometry x="410" y="420" width="120" height="80" as="geometry" />
        </mxCell>
        <mxCell id="S5Txtm_veZ8N1voSTqvE-24" value="&lt;br&gt;Print Invoice&lt;div&gt;&lt;br/&gt;&lt;/div&gt;" style="ellipse;whiteSpace=wrap;html=1;" vertex="1" parent="1">
          <mxGeometry x="590" y="430" width="120" height="80" as="geometry" />
        </mxCell>
        <mxCell id="S5Txtm_veZ8N1voSTqvE-25" value="&amp;lt;&amp;lt;Extend&amp;gt;&amp;gt;" style="endArrow=open;endSize=12;dashed=1;html=1;rounded=0;exitX=0.625;exitY=0.975;exitDx=0;exitDy=0;exitPerimeter=0;" edge="1" parent="1" source="S5Txtm_veZ8N1voSTqvE-7" target="S5Txtm_veZ8N1voSTqvE-24">
          <mxGeometry width="160" relative="1" as="geometry">
            <mxPoint x="449.42050480045987" y="494.45408621862384" as="sourcePoint" />
            <mxPoint x="550" y="410" as="targetPoint" />
          </mxGeometry>
        </mxCell>
        <mxCell id="S5Txtm_veZ8N1voSTqvE-26" value="&amp;lt;&amp;lt;Extend&amp;gt;&amp;gt;" style="endArrow=open;endSize=12;dashed=1;html=1;rounded=0;exitX=0;exitY=1;exitDx=0;exitDy=0;entryX=1;entryY=0;entryDx=0;entryDy=0;" edge="1" parent="1" source="S5Txtm_veZ8N1voSTqvE-7" target="S5Txtm_veZ8N1voSTqvE-23">
          <mxGeometry width="160" relative="1" as="geometry">
            <mxPoint x="450" y="515.04" as="sourcePoint" />
            <mxPoint x="560" y="420" as="targetPoint" />
          </mxGeometry>
        </mxCell>
        <mxCell id="S5Txtm_veZ8N1voSTqvE-27" value="Actor" style="shape=umlActor;verticalLabelPosition=bottom;verticalAlign=top;html=1;" vertex="1" parent="1">
          <mxGeometry x="530" y="670" width="30" height="60" as="geometry" />
        </mxCell>
        <mxCell id="S5Txtm_veZ8N1voSTqvE-28" value="Login" style="ellipse;whiteSpace=wrap;html=1;" vertex="1" parent="1">
          <mxGeometry x="717.51" y="235" width="120" height="80" as="geometry" />
        </mxCell>
        <mxCell id="S5Txtm_veZ8N1voSTqvE-29" value="&amp;lt;&amp;lt;include&amp;gt;&amp;gt;" style="endArrow=open;endSize=12;dashed=1;html=1;rounded=0;exitX=0.975;exitY=0.25;exitDx=0;exitDy=0;exitPerimeter=0;" edge="1" parent="1" target="S5Txtm_veZ8N1voSTqvE-28" source="S5Txtm_veZ8N1voSTqvE-8">
          <mxGeometry width="160" relative="1" as="geometry">
            <mxPoint x="504.51" y="-105" as="sourcePoint" />
            <mxPoint x="535.51" y="242" as="targetPoint" />
          </mxGeometry>
        </mxCell>
        <mxCell id="S5Txtm_veZ8N1voSTqvE-30" value="&amp;lt;&amp;lt;include&amp;gt;&amp;gt;" style="endArrow=open;endSize=12;dashed=1;html=1;rounded=0;exitX=1;exitY=0.5;exitDx=0;exitDy=0;entryX=0;entryY=0.5;entryDx=0;entryDy=0;" edge="1" parent="1" target="S5Txtm_veZ8N1voSTqvE-28" source="S5Txtm_veZ8N1voSTqvE-6">
          <mxGeometry width="160" relative="1" as="geometry">
            <mxPoint x="462.49" y="273" as="sourcePoint" />
            <mxPoint x="741.51" y="367" as="targetPoint" />
          </mxGeometry>
        </mxCell>
        <mxCell id="S5Txtm_veZ8N1voSTqvE-31" value="&amp;lt;&amp;lt;include&amp;gt;&amp;gt;" style="endArrow=open;endSize=12;dashed=1;html=1;rounded=0;exitX=1;exitY=0.5;exitDx=0;exitDy=0;entryX=0.397;entryY=0.076;entryDx=0;entryDy=0;entryPerimeter=0;" edge="1" parent="1" target="S5Txtm_veZ8N1voSTqvE-28" source="S5Txtm_veZ8N1voSTqvE-5">
          <mxGeometry width="160" relative="1" as="geometry">
            <mxPoint x="504.51" y="-205" as="sourcePoint" />
            <mxPoint x="755.79" y="240.96000000000004" as="targetPoint" />
          </mxGeometry>
        </mxCell>
        <mxCell id="S5Txtm_veZ8N1voSTqvE-32" value="&amp;lt;&amp;lt;include&amp;gt;&amp;gt;" style="endArrow=open;endSize=12;dashed=1;html=1;rounded=0;" edge="1" parent="1" source="S5Txtm_veZ8N1voSTqvE-7">
          <mxGeometry width="160" relative="1" as="geometry">
            <mxPoint x="677.53" y="295" as="sourcePoint" />
            <mxPoint x="728.51" y="289" as="targetPoint" />
          </mxGeometry>
        </mxCell>
        <mxCell id="S5Txtm_veZ8N1voSTqvE-33" value="&amp;lt;&amp;lt;include&amp;gt;&amp;gt;" style="endArrow=open;endSize=12;dashed=1;html=1;rounded=0;exitX=1;exitY=0.6;exitDx=0;exitDy=0;entryX=0;entryY=1;entryDx=0;entryDy=0;exitPerimeter=0;" edge="1" parent="1" target="S5Txtm_veZ8N1voSTqvE-28" source="S5Txtm_veZ8N1voSTqvE-10">
          <mxGeometry width="160" relative="1" as="geometry">
            <mxPoint x="467.53" y="485" as="sourcePoint" />
            <mxPoint x="727.51" y="306" as="targetPoint" />
            <Array as="points">
              <mxPoint x="740" y="570" />
            </Array>
          </mxGeometry>
        </mxCell>
      </root>
    </mxGraphModel>
  </diagram>
</mxfile>
